<svg version="1.1" id="Layer_1" xmlns="http://www.w3.org/2000/svg" xmlns:xlink="http://www.w3.org/1999/xlink" x="0px" y="0px"
	 width="100%" viewBox="0 0 1024 1024" enable-background="new 0 0 1024 1024" xml:space="preserve">
<path fill="#010101" opacity="1.000000" stroke="none" 
	d="
M675.000000,1025.000000 
	C450.000000,1025.000000 225.500000,1025.000000 1.000000,1025.000000 
	C1.000000,683.666687 1.000000,342.333344 1.000000,1.000000 
	C342.333344,1.000000 683.666687,1.000000 1025.000000,1.000000 
	C1025.000000,342.333344 1025.000000,683.666687 1025.000000,1025.000000 
	C908.500000,1025.000000 792.000000,1025.000000 675.000000,1025.000000 
M619.369141,849.059448 
	C619.047668,849.168823 618.896484,849.393005 618.001648,849.893127 
	C589.353149,849.836182 560.704712,849.779175 531.554016,849.223450 
	C523.022644,849.202942 514.491272,849.182373 505.233307,848.711304 
	C503.309814,848.451233 501.386200,847.963806 499.462799,847.964478 
	C457.144318,847.979675 414.825806,848.056274 372.507324,848.105591 
	C338.191010,848.145630 303.874695,848.167786 269.558380,848.192627 
	C257.775574,848.201172 245.992752,848.193970 233.395203,848.193970 
	C234.098511,846.265930 234.418671,844.884888 235.068329,843.681824 
	C247.858429,819.996704 260.717194,796.348694 273.499817,772.659546 
	C290.480164,741.191101 307.424530,709.703308 324.347870,678.204102 
	C330.349823,667.032715 336.299133,655.832031 342.140320,644.576050 
	C343.239746,642.457520 344.712067,639.486389 338.927765,640.177856 
	C293.789307,640.148560 248.650711,640.154846 203.512650,640.004517 
	C200.711899,639.995239 198.746063,640.764404 197.509598,643.011169 
	C188.032516,660.231934 178.569748,677.461243 169.226257,694.754761 
	C156.881363,717.603394 144.642365,740.509338 132.370316,763.397339 
	C122.758995,781.322998 113.202095,799.277954 103.557625,817.185730 
	C89.048279,844.126587 74.483521,871.037537 59.243031,898.057190 
	C56.177532,904.052673 53.112030,910.048096 50.000000,916.000000 
	C50.000000,916.000000 50.046677,916.043030 49.348629,916.181641 
	C49.061451,916.325195 48.633369,916.391907 48.507214,916.623291 
	C40.617622,931.090515 32.714359,945.550476 24.904129,960.060547 
	C21.727663,965.961853 18.758190,971.974609 15.503525,978.308350 
	C347.470947,978.308350 678.431335,978.308350 1009.986328,978.308350 
	C1009.364868,976.596619 1009.113892,975.497864 1008.596375,974.543640 
	C1003.853760,965.799377 999.011108,957.109131 994.299377,948.348328 
	C978.671692,919.290771 963.153687,890.174011 947.467224,861.148315 
	C929.317566,827.564880 910.992859,794.076050 892.819336,760.505432 
	C871.925415,721.909607 851.056335,683.300049 830.359375,644.598572 
	C828.383057,640.903076 826.249573,639.685852 822.074951,639.702393 
	C777.415527,639.879333 732.755188,639.814575 688.095093,639.829041 
	C686.468262,639.829590 684.841492,639.962402 682.512512,640.064270 
	C683.100464,642.224854 683.262085,644.032593 684.044495,645.512024 
	C696.060791,668.231812 708.140991,690.917969 720.242188,713.592834 
	C729.086975,730.166016 737.949707,746.729736 746.865845,763.264648 
	C761.921387,791.184814 777.025452,819.078857 791.641907,847.657654 
	C789.059387,848.350708 786.476929,849.043762 782.987732,849.826050 
	C779.032959,849.776733 775.078186,849.727417 770.953552,848.877441 
	C762.934021,848.623962 754.914551,848.370483 745.976746,848.023926 
	C736.362793,848.062683 726.748901,848.101501 716.342346,848.335815 
	C714.555115,848.575867 712.769287,848.826599 710.980347,849.052979 
	C709.278503,849.268372 707.573425,849.458313 705.186279,849.753479 
	C704.497375,849.732300 703.808533,849.711182 702.976013,848.920166 
	C700.945007,848.653198 698.913940,848.386230 695.967468,848.024292 
	C672.112427,848.016846 648.257263,847.991333 624.402405,848.044006 
	C622.866150,848.047363 621.331299,848.655090 619.369141,849.059448 
M20.132158,547.862122 
	C20.127991,548.873047 20.123821,549.883972 19.851591,551.812927 
	C19.838406,568.477844 19.931129,585.144104 19.731285,601.806763 
	C19.686092,605.574951 21.193417,606.182861 24.462168,606.121155 
	C34.124588,605.938538 43.792412,606.034485 53.458122,606.034607 
	C369.101715,606.038513 684.745300,606.034790 1000.388794,606.142883 
	C1004.835876,606.144409 1005.964844,604.913757 1005.952942,600.519531 
	C1005.847168,561.357300 1005.955322,522.194397 1006.102051,483.032074 
	C1006.117615,478.868347 1004.779907,477.133911 1000.349243,477.159790 
	C982.359131,477.264771 964.367249,476.997467 946.375977,476.997681 
	C909.551392,476.998138 872.726746,477.110443 835.902161,477.126160 
	C771.083984,477.153839 706.265869,477.160645 641.447693,477.144928 
	C561.623779,477.125580 481.799896,477.050201 401.976013,477.043762 
	C325.320465,477.037567 248.664917,477.086334 172.009369,477.115204 
	C123.355003,477.133514 74.700592,477.144714 26.046446,477.259430 
	C24.696411,477.262604 23.349079,478.412445 21.209536,479.263458 
	C20.840975,480.909790 20.159550,482.554749 20.152140,484.202698 
	C20.076168,501.101868 20.109501,518.001526 19.847317,535.806458 
	C19.938044,539.572327 20.028770,543.338196 20.132158,547.862122 
M719.087524,431.411285 
	C708.609680,412.033630 698.130676,392.656616 687.654297,373.278168 
	C672.690918,345.600159 657.664429,317.955994 642.785889,290.232391 
	C628.570251,263.743988 614.603088,237.122101 600.353882,210.651962 
	C586.633423,185.164200 572.636230,159.825607 558.862366,134.366379 
	C544.358765,107.558273 530.000305,80.671623 515.469849,53.878159 
	C514.721069,52.497364 512.951416,51.670162 511.107788,50.124847 
	C440.741241,181.066055 370.759247,311.291687 300.543488,441.952301 
	C302.214172,442.312134 303.608063,442.870880 305.003754,442.875458 
	C350.162079,443.023560 395.320648,443.157898 440.478790,443.072357 
	C442.244202,443.069000 444.605286,441.270630 445.652130,439.642212 
	C448.396423,435.373383 450.535370,430.718414 452.970581,426.247345 
	C467.456085,399.652069 481.972992,373.073883 496.444733,346.471130 
	C501.718597,336.776398 506.897339,327.029907 512.815125,316.011780 
	C515.800964,321.707458 518.200378,326.442871 520.739136,331.102386 
	C540.429626,367.242310 560.216614,403.330078 579.726196,439.567261 
	C581.315857,442.519836 582.930359,443.246613 585.847229,443.242645 
	C630.172852,443.182526 674.498596,443.183807 718.824280,443.157654 
	C720.436279,443.156677 722.048157,443.022491 724.828613,442.898102 
	C722.825928,438.732819 721.206055,435.363739 719.087524,431.411285 
z"/>
<path fill="#FAFAEE" opacity="1.000000" stroke="none" 
	d="
M703.119629,849.690063 
	C703.808533,849.711182 704.497375,849.732300 705.981689,849.865540 
	C716.098450,850.018188 725.420105,850.131775 734.740845,850.080994 
	C746.868774,850.014954 758.995911,849.818481 771.123413,849.678101 
	C775.078186,849.727417 779.032959,849.776733 783.883545,849.921265 
	C787.845642,850.068115 790.911987,850.119629 794.114258,850.316711 
	C794.263855,849.821106 794.277527,849.179993 794.315186,848.386536 
	C794.339172,848.234192 794.177246,847.971558 794.183105,847.593994 
	C788.234619,835.950989 782.340088,824.653625 776.316040,813.425720 
	C746.644409,758.123291 716.944397,702.836060 687.234741,647.554016 
	C684.405884,642.290161 684.674744,641.604980 690.470947,641.602051 
	C734.458069,641.580078 778.445312,641.625854 822.432312,641.562073 
	C825.528503,641.557556 827.289062,642.693787 828.632324,645.442871 
	C831.169617,650.635498 834.014343,655.678650 836.757446,660.769836 
	C868.418396,719.533447 900.016296,778.331299 931.772644,837.043335 
	C953.256897,876.764099 974.987549,916.351501 996.552551,956.028687 
	C999.981018,962.336731 1003.116699,968.804016 1006.617615,975.646973 
	C677.175354,975.646973 348.595245,975.646973 19.548525,975.646973 
	C20.196861,973.723694 20.481207,972.246277 21.156380,970.976746 
	C27.038960,959.915283 33.047821,948.920715 38.903305,937.845093 
	C42.717537,930.630493 46.338917,923.313904 50.046684,916.043030 
	C50.046677,916.043030 50.000000,916.000000 50.327202,915.885254 
	C53.750370,909.834045 56.846344,903.897644 59.942322,897.961243 
	C74.483521,871.037537 89.048279,844.126587 103.557625,817.185730 
	C113.202095,799.277954 122.758995,781.322998 132.370316,763.397339 
	C144.642365,740.509338 156.881363,717.603394 169.226257,694.754761 
	C178.569748,677.461243 188.032516,660.231934 197.509598,643.011169 
	C198.746063,640.764404 200.711899,639.995239 203.512650,640.004517 
	C248.650711,640.154846 293.789307,640.148560 339.500732,640.569214 
	C339.719177,642.841858 339.799377,644.953552 338.943329,646.568970 
	C329.718475,663.976624 320.360962,681.314148 311.011230,698.655518 
	C285.968201,745.103638 260.902191,791.539368 235.875961,837.996521 
	C233.743958,841.954224 231.839523,846.034424 229.568924,850.578979 
	C237.382828,850.578979 244.007706,850.591797 250.632523,850.576965 
	C313.944641,850.435425 377.256775,850.299988 440.568878,850.138550 
	C462.389221,850.082886 484.209381,849.959290 506.492188,849.933594 
	C515.321899,849.907715 523.689087,849.814941 532.056213,849.722229 
	C560.704712,849.779175 589.353149,849.836182 618.923218,849.914001 
	C643.963745,849.966919 668.082581,850.013794 692.201477,850.015198 
	C695.840881,850.015442 699.480225,849.803711 703.119629,849.690063 
z"/>
<path fill="#FBFBEF" opacity="1.000000" stroke="none" 
	d="
M20.112328,534.901001 
	C20.109501,518.001526 20.076168,501.101868 20.152140,484.202698 
	C20.159550,482.554749 20.840975,480.909790 21.977358,479.299194 
	C27.074728,479.447876 31.404251,479.658752 35.733826,479.659821 
	C312.349609,479.727753 588.965393,479.794067 865.581177,479.815491 
	C909.905762,479.818909 954.230652,479.664337 998.554626,479.431427 
	C1003.078979,479.407654 1004.736023,480.638702 1004.405396,485.396881 
	C1003.817261,493.859741 1003.700562,502.366272 1003.675720,510.855377 
	C1003.590881,539.849854 1003.631165,568.844666 1003.625061,597.839355 
	C1003.623718,604.162537 1003.443237,604.338867 997.238403,604.339661 
	C811.772522,604.362305 626.306641,604.395996 440.840790,604.408691 
	C302.866302,604.418091 164.891800,604.384583 26.917370,604.471619 
	C22.718307,604.474243 21.352058,603.075256 21.385275,598.995117 
	C21.501928,584.665710 21.411230,570.333862 21.281359,556.004028 
	C21.265896,554.297607 20.524536,552.597778 20.119652,550.894897 
	C20.123821,549.883972 20.127991,548.873047 20.378582,547.229492 
	C20.454111,542.698242 20.283218,538.799622 20.112328,534.901001 
z"/>
<path fill="#FAFAEE" opacity="1.000000" stroke="none" 
	d="
M719.336853,431.702972 
	C721.206055,435.363739 722.825928,438.732819 724.828613,442.898102 
	C722.048157,443.022491 720.436279,443.156677 718.824280,443.157654 
	C674.498596,443.183807 630.172852,443.182526 585.847229,443.242645 
	C582.930359,443.246613 581.315857,442.519836 579.726196,439.567261 
	C560.216614,403.330078 540.429626,367.242310 520.739136,331.102386 
	C518.200378,326.442871 515.800964,321.707458 512.815125,316.011780 
	C506.897339,327.029907 501.718597,336.776398 496.444733,346.471130 
	C481.972992,373.073883 467.456085,399.652069 452.970581,426.247345 
	C450.535370,430.718414 448.396423,435.373383 445.652130,439.642212 
	C444.605286,441.270630 442.244202,443.069000 440.478790,443.072357 
	C395.320648,443.157898 350.162079,443.023560 305.003754,442.875458 
	C303.608063,442.870880 302.214172,442.312134 300.543488,441.952301 
	C370.759247,311.291687 440.741241,181.066055 511.107788,50.124847 
	C512.951416,51.670162 514.721069,52.497364 515.469849,53.878159 
	C530.000305,80.671623 544.358765,107.558273 558.862366,134.366379 
	C572.636230,159.825607 586.633423,185.164200 600.353882,210.651962 
	C614.603088,237.122101 628.570251,263.743988 642.785889,290.232391 
	C657.664429,317.955994 672.690918,345.600159 687.654297,373.278168 
	C698.130676,392.656616 708.609680,412.033630 719.336853,431.702972 
z"/>
<path fill="#74746F" opacity="1.000000" stroke="none" 
	d="
M19.985620,551.353882 
	C20.524536,552.597778 21.265896,554.297607 21.281359,556.004028 
	C21.411230,570.333862 21.501928,584.665710 21.385275,598.995117 
	C21.352058,603.075256 22.718307,604.474243 26.917370,604.471619 
	C164.891800,604.384583 302.866302,604.418091 440.840790,604.408691 
	C626.306641,604.395996 811.772522,604.362305 997.238403,604.339661 
	C1003.443237,604.338867 1003.623718,604.162537 1003.625061,597.839355 
	C1003.631165,568.844666 1003.590881,539.849854 1003.675720,510.855377 
	C1003.700562,502.366272 1003.817261,493.859741 1004.405396,485.396881 
	C1004.736023,480.638702 1003.078979,479.407654 998.554626,479.431427 
	C954.230652,479.664337 909.905762,479.818909 865.581177,479.815491 
	C588.965393,479.794067 312.349609,479.727753 35.733826,479.659821 
	C31.404251,479.658752 27.074728,479.447876 22.372833,479.181274 
	C23.349079,478.412445 24.696411,477.262604 26.046446,477.259430 
	C74.700592,477.144714 123.355003,477.133514 172.009369,477.115204 
	C248.664917,477.086334 325.320465,477.037567 401.976013,477.043762 
	C481.799896,477.050201 561.623779,477.125580 641.447693,477.144928 
	C706.265869,477.160645 771.083984,477.153839 835.902161,477.126160 
	C872.726746,477.110443 909.551392,476.998138 946.375977,476.997681 
	C964.367249,476.997467 982.359131,477.264771 1000.349243,477.159790 
	C1004.779907,477.133911 1006.117615,478.868347 1006.102051,483.032074 
	C1005.955322,522.194397 1005.847168,561.357300 1005.952942,600.519531 
	C1005.964844,604.913757 1004.835876,606.144409 1000.388794,606.142883 
	C684.745300,606.034790 369.101715,606.038513 53.458122,606.034607 
	C43.792412,606.034485 34.124588,605.938538 24.462168,606.121155 
	C21.193417,606.182861 19.686092,605.574951 19.731285,601.806763 
	C19.931129,585.144104 19.838406,568.477844 19.985620,551.353882 
z"/>
<path fill="#6B6B66" opacity="1.000000" stroke="none" 
	d="
M49.697659,916.112305 
	C46.338917,923.313904 42.717537,930.630493 38.903305,937.845093 
	C33.047821,948.920715 27.038960,959.915283 21.156380,970.976746 
	C20.481207,972.246277 20.196861,973.723694 19.548525,975.646973 
	C348.595245,975.646973 677.175354,975.646973 1006.617615,975.646973 
	C1003.116699,968.804016 999.981018,962.336731 996.552551,956.028687 
	C974.987549,916.351501 953.256897,876.764099 931.772644,837.043335 
	C900.016296,778.331299 868.418396,719.533447 836.757446,660.769836 
	C834.014343,655.678650 831.169617,650.635498 828.632324,645.442871 
	C827.289062,642.693787 825.528503,641.557556 822.432312,641.562073 
	C778.445312,641.625854 734.458069,641.580078 690.470947,641.602051 
	C684.674744,641.604980 684.405884,642.290161 687.234741,647.554016 
	C716.944397,702.836060 746.644409,758.123291 776.316040,813.425720 
	C782.340088,824.653625 788.234619,835.950989 793.909790,847.504639 
	C793.123474,847.523254 792.616272,847.253540 792.109131,846.983887 
	C777.025452,819.078857 761.921387,791.184814 746.865845,763.264648 
	C737.949707,746.729736 729.086975,730.166016 720.242188,713.592834 
	C708.140991,690.917969 696.060791,668.231812 684.044495,645.512024 
	C683.262085,644.032593 683.100464,642.224854 682.512512,640.064270 
	C684.841492,639.962402 686.468262,639.829590 688.095093,639.829041 
	C732.755188,639.814575 777.415527,639.879333 822.074951,639.702393 
	C826.249573,639.685852 828.383057,640.903076 830.359375,644.598572 
	C851.056335,683.300049 871.925415,721.909607 892.819336,760.505432 
	C910.992859,794.076050 929.317566,827.564880 947.467224,861.148315 
	C963.153687,890.174011 978.671692,919.290771 994.299377,948.348328 
	C999.011108,957.109131 1003.853760,965.799377 1008.596375,974.543640 
	C1009.113892,975.497864 1009.364868,976.596619 1009.986328,978.308350 
	C678.431335,978.308350 347.470947,978.308350 15.503525,978.308350 
	C18.758190,971.974609 21.727663,965.961853 24.904129,960.060547 
	C32.714359,945.550476 40.617622,931.090515 48.507214,916.623291 
	C48.633369,916.391907 49.061451,916.325195 49.697659,916.112305 
z"/>
<path fill="#6D6E69" opacity="1.000000" stroke="none" 
	d="
M506.029633,849.866699 
	C484.209381,849.959290 462.389221,850.082886 440.568878,850.138550 
	C377.256775,850.299988 313.944641,850.435425 250.632523,850.576965 
	C244.007706,850.591797 237.382828,850.578979 229.568924,850.578979 
	C231.839523,846.034424 233.743958,841.954224 235.875961,837.996521 
	C260.902191,791.539368 285.968201,745.103638 311.011230,698.655518 
	C320.360962,681.314148 329.718475,663.976624 338.943329,646.568970 
	C339.799377,644.953552 339.719177,642.841858 339.959656,640.564148 
	C344.712067,639.486389 343.239746,642.457520 342.140320,644.576050 
	C336.299133,655.832031 330.349823,667.032715 324.347870,678.204102 
	C307.424530,709.703308 290.480164,741.191101 273.499817,772.659546 
	C260.717194,796.348694 247.858429,819.996704 235.068329,843.681824 
	C234.418671,844.884888 234.098511,846.265930 233.395203,848.193970 
	C245.992752,848.193970 257.775574,848.201172 269.558380,848.192627 
	C303.874695,848.167786 338.191010,848.145630 372.507324,848.105591 
	C414.825806,848.056274 457.144318,847.979675 499.462799,847.964478 
	C501.386200,847.963806 503.309814,848.451233 505.616516,849.112427 
	C505.999695,849.513550 506.029633,849.866699 506.029633,849.866699 
z"/>
<path fill="#4F4F4A" opacity="1.000000" stroke="none" 
	d="
M771.038452,849.277710 
	C758.995911,849.818481 746.868774,850.014954 734.740845,850.080994 
	C725.420105,850.131775 716.098450,850.018188 706.323486,849.818542 
	C707.573425,849.458313 709.278503,849.268372 710.980347,849.052979 
	C712.769287,848.826599 714.555115,848.575867 717.020752,848.530945 
	C725.072876,848.840454 732.446777,849.038757 739.820190,849.020325 
	C742.179199,849.014465 744.536804,848.434448 746.895020,848.117065 
	C754.914551,848.370483 762.934021,848.623962 771.038452,849.277710 
z"/>
<path fill="#4F4F4A" opacity="1.000000" stroke="none" 
	d="
M703.047852,849.305054 
	C699.480225,849.803711 695.840881,850.015442 692.201477,850.015198 
	C668.082581,850.013794 643.963745,849.966919 619.380249,849.833496 
	C618.896484,849.393005 619.047668,849.168823 620.065552,849.048889 
	C644.404114,849.034912 668.046326,849.050537 691.688232,848.988953 
	C693.420532,848.984436 695.151428,848.422119 696.882935,848.119202 
	C698.913940,848.386230 700.945007,848.653198 703.047852,849.305054 
z"/>
<path fill="#808080" opacity="1.000000" stroke="none" 
	d="
M696.425171,848.071777 
	C695.151428,848.422119 693.420532,848.984436 691.688232,848.988953 
	C668.046326,849.050537 644.404114,849.034912 620.278931,849.010010 
	C621.331299,848.655090 622.866150,848.047363 624.402405,848.044006 
	C648.257263,847.991333 672.112427,848.016846 696.425171,848.071777 
z"/>
<path fill="#6B6B66" opacity="1.000000" stroke="none" 
	d="
M59.592674,898.009216 
	C56.846344,903.897644 53.750370,909.834045 50.350464,915.906982 
	C53.112030,910.048096 56.177532,904.052673 59.592674,898.009216 
z"/>
<path fill="#546733" opacity="1.000000" stroke="none" 
	d="
M506.492188,849.933594 
	C506.029633,849.866699 505.999695,849.513550 505.979797,849.337708 
	C514.491272,849.182373 523.022644,849.202942 531.805115,849.472839 
	C523.689087,849.814941 515.321899,849.907715 506.492188,849.933594 
z"/>
<path fill="#808080" opacity="1.000000" stroke="none" 
	d="
M746.435913,848.070496 
	C744.536804,848.434448 742.179199,849.014465 739.820190,849.020325 
	C732.446777,849.038757 725.072876,848.840454 717.417053,848.433228 
	C726.748901,848.101501 736.362793,848.062683 746.435913,848.070496 
z"/>
<path fill="#74746F" opacity="1.000000" stroke="none" 
	d="
M19.979822,535.353760 
	C20.283218,538.799622 20.454111,542.698242 20.372250,546.850464 
	C20.028770,543.338196 19.938044,539.572327 19.979822,535.353760 
z"/>
<path fill="#4F4F4A" opacity="1.000000" stroke="none" 
	d="
M791.875488,847.320801 
	C792.616272,847.253540 793.123474,847.523254 793.903931,847.882202 
	C794.177246,847.971558 794.339172,848.234192 794.198120,848.787476 
	C794.030823,849.617554 794.004578,849.894348 793.978333,850.171204 
	C790.911987,850.119629 787.845642,850.068115 784.336853,849.876709 
	C786.476929,849.043762 789.059387,848.350708 791.875488,847.320801 
z"/>
<path fill="#6B6B66" opacity="1.000000" stroke="none" 
	d="
M794.114258,850.316711 
	C794.004578,849.894348 794.030823,849.617554 794.174072,848.939819 
	C794.277527,849.179993 794.263855,849.821106 794.114258,850.316711 
z"/>
</svg>